<?xml version="1.0" encoding="UTF-8" standalone="no"?>
<!-- Created with Inkscape (http://www.inkscape.org/) -->

<svg
   xmlns:dc="http://purl.org/dc/elements/1.1/"
   xmlns:cc="http://creativecommons.org/ns#"
   xmlns:rdf="http://www.w3.org/1999/02/22-rdf-syntax-ns#"
   xmlns:svg="http://www.w3.org/2000/svg"
   xmlns="http://www.w3.org/2000/svg"
   xmlns:sodipodi="http://sodipodi.sourceforge.net/DTD/sodipodi-0.dtd"
   xmlns:inkscape="http://www.inkscape.org/namespaces/inkscape"
   id="svg2"
   version="1.1"
   inkscape:version="0.48.0 r9654"
   width="16"
   height="16"
   sodipodi:docname="forest.png">
  <metadata
     id="metadata8">
    <rdf:RDF>
      <cc:Work
         rdf:about="">
        <dc:format>image/svg+xml</dc:format>
        <dc:type
           rdf:resource="http://purl.org/dc/dcmitype/StillImage" />
        <dc:title></dc:title>
      </cc:Work>
    </rdf:RDF>
  </metadata>
  <defs
     id="defs6" />
  <sodipodi:namedview
     pagecolor="#ffffff"
     bordercolor="#666666"
     borderopacity="1"
     objecttolerance="10"
     gridtolerance="10"
     guidetolerance="10"
     inkscape:pageopacity="0"
     inkscape:pageshadow="2"
     inkscape:window-width="1359"
     inkscape:window-height="1172"
     id="namedview4"
     showgrid="false"
     inkscape:zoom="19.3125"
     inkscape:cx="1.5533981"
     inkscape:cy="8"
     inkscape:window-x="0"
     inkscape:window-y="24"
     inkscape:window-maximized="0"
     inkscape:current-layer="svg2" />
  <g
     style="fill:#4a9206;fill-opacity:1"
     id="g3698"
     transform="matrix(0.027351,9.6267309e-5,-1.1096859e-4,0.02372751,4.5160153,0.04946703)"
     inkscape:transform-center-x="20.711974"
     inkscape:transform-center-y="-1.0873786">
    <path
       inkscape:connector-curvature="0"
       style="fill:#4a9206;fill-opacity:1;stroke:none"
       d="m 129.12641,148.50488 -3.48505,348.42028 36.98893,-0.93997 c 190.74193,57.01357 25.9908,-30.55432 -7.71661,-64.82582 188.32041,79.63483 29.71979,-36.32212 3.75058,-77.50236 140.57537,71.73413 18.43604,-37.47332 -5.1793,-78.82357 72.60393,43.83194 72.86813,21.62118 2.48723,-65.08513 62.84446,24.11291 11.98038,-22.29832 -26.84578,-61.24343 z"
       id="path2839-2"
       sodipodi:nodetypes="cccccccc" />
    <path
       inkscape:connector-curvature="0"
       style="fill:#4a9206;fill-opacity:1;stroke:none"
       d="m 129.09113,148.89187 4.16783,348.2258 -36.988927,0.93997 c -190.620666,66.70477 -26.04939,-29.23188 7.589157,-65.21478 -188.154928,89.20184 -29.789507,-34.80987 -3.902308,-77.30788 -140.427759,78.87499 -18.508577,-36.53449 5.024538,-79.08287 -72.514399,47.51969 -72.822123,25.32347 -2.61469,-64.95548 -62.794067,27.30564 -12.023491,-21.68834 26.7244,-62.60476 z"
       id="path2839-5-4"
       sodipodi:nodetypes="cccccccc" />
  </g>
</svg>
