<?xml version="1.0" encoding="UTF-8" standalone="no"?>
<!-- Created with Inkscape (http://www.inkscape.org/) -->

<svg
   xmlns:dc="http://purl.org/dc/elements/1.1/"
   xmlns:cc="http://creativecommons.org/ns#"
   xmlns:rdf="http://www.w3.org/1999/02/22-rdf-syntax-ns#"
   xmlns:svg="http://www.w3.org/2000/svg"
   xmlns="http://www.w3.org/2000/svg"
   xmlns:xlink="http://www.w3.org/1999/xlink"
   xmlns:sodipodi="http://sodipodi.sourceforge.net/DTD/sodipodi-0.dtd"
   xmlns:inkscape="http://www.inkscape.org/namespaces/inkscape"
   width="16"
   height="16"
   id="svg2"
   version="1.1"
   inkscape:version="0.47pre4 r22446"
   sodipodi:docname="toilets.svg"
   inkscape:export-filename="/home/ash/Misc/ProgramFiles/mapnik/symbols/toilets.png"
   inkscape:export-xdpi="90"
   inkscape:export-ydpi="90">
  <defs
     id="defs4">
    <linearGradient
       id="linearGradient3618">
      <stop
         style="stop-color:#91f82f;stop-opacity:1;"
         offset="0"
         id="stop3620" />
      <stop
         style="stop-color:#4a771e;stop-opacity:1;"
         offset="1"
         id="stop3622" />
    </linearGradient>
    <inkscape:perspective
       sodipodi:type="inkscape:persp3d"
       inkscape:vp_x="0 : 526.18109 : 1"
       inkscape:vp_y="0 : 1000 : 0"
       inkscape:vp_z="744.09448 : 526.18109 : 1"
       inkscape:persp3d-origin="372.04724 : 350.78739 : 1"
       id="perspective10" />
    <inkscape:perspective
       id="perspective2935"
       inkscape:persp3d-origin="0.5 : 0.33333333 : 1"
       inkscape:vp_z="1 : 0.5 : 1"
       inkscape:vp_y="0 : 1000 : 0"
       inkscape:vp_x="0 : 0.5 : 1"
       sodipodi:type="inkscape:persp3d" />
    <inkscape:perspective
       id="perspective3860"
       inkscape:persp3d-origin="0.5 : 0.33333333 : 1"
       inkscape:vp_z="1 : 0.5 : 1"
       inkscape:vp_y="0 : 1000 : 0"
       inkscape:vp_x="0 : 0.5 : 1"
       sodipodi:type="inkscape:persp3d" />
    <inkscape:perspective
       id="perspective2832"
       inkscape:persp3d-origin="0.5 : 0.33333333 : 1"
       inkscape:vp_z="1 : 0.5 : 1"
       inkscape:vp_y="0 : 1000 : 0"
       inkscape:vp_x="0 : 0.5 : 1"
       sodipodi:type="inkscape:persp3d" />
    <linearGradient
       inkscape:collect="always"
       xlink:href="#linearGradient3618"
       id="linearGradient3624"
       x1="-3.4626113e-09"
       y1="-2.8855069e-09"
       x2="16"
       y2="15.96875"
       gradientUnits="userSpaceOnUse" />
    <inkscape:perspective
       sodipodi:type="inkscape:persp3d"
       inkscape:vp_x="0 : 526.18109 : 1"
       inkscape:vp_y="0 : 1000 : 0"
       inkscape:vp_z="744.09448 : 526.18109 : 1"
       inkscape:persp3d-origin="372.04724 : 350.78739 : 1"
       id="perspective2412" />
    <inkscape:perspective
       id="perspective2414"
       inkscape:persp3d-origin="372.04724 : 350.78739 : 1"
       inkscape:vp_z="744.09448 : 526.18109 : 1"
       inkscape:vp_y="0 : 1000 : 0"
       inkscape:vp_x="0 : 526.18109 : 1"
       sodipodi:type="inkscape:persp3d" />
    <inkscape:perspective
       sodipodi:type="inkscape:persp3d"
       inkscape:vp_x="0 : 526.18109 : 1"
       inkscape:vp_y="0 : 1000 : 0"
       inkscape:vp_z="744.09448 : 526.18109 : 1"
       inkscape:persp3d-origin="372.04724 : 350.78739 : 1"
       id="perspective3477" />
    <inkscape:perspective
       id="perspective10-6"
       inkscape:persp3d-origin="372.04724 : 350.78739 : 1"
       inkscape:vp_z="744.09448 : 526.18109 : 1"
       inkscape:vp_y="0 : 1000 : 0"
       inkscape:vp_x="0 : 526.18109 : 1"
       sodipodi:type="inkscape:persp3d" />
    <inkscape:perspective
       id="perspective2931"
       inkscape:persp3d-origin="0.5 : 0.33333333 : 1"
       inkscape:vp_z="1 : 0.5 : 1"
       inkscape:vp_y="0 : 1000 : 0"
       inkscape:vp_x="0 : 0.5 : 1"
       sodipodi:type="inkscape:persp3d" />
    <inkscape:perspective
       id="perspective3038"
       inkscape:persp3d-origin="0.5 : 0.33333333 : 1"
       inkscape:vp_z="1 : 0.5 : 1"
       inkscape:vp_y="0 : 1000 : 0"
       inkscape:vp_x="0 : 0.5 : 1"
       sodipodi:type="inkscape:persp3d" />
  </defs>
  <sodipodi:namedview
     id="base"
     pagecolor="#ffffff"
     bordercolor="#666666"
     borderopacity="1.0"
     inkscape:pageopacity="0.0"
     inkscape:pageshadow="2"
     inkscape:zoom="1"
     inkscape:cx="10.160924"
     inkscape:cy="9.6263206"
     inkscape:document-units="px"
     inkscape:current-layer="layer1"
     showgrid="true"
     inkscape:snap-global="false"
     inkscape:window-width="1440"
     inkscape:window-height="815"
     inkscape:window-x="0"
     inkscape:window-y="25"
     inkscape:window-maximized="1"
     showguides="false">
    <inkscape:grid
       type="xygrid"
       id="grid3866"
       empspacing="5"
       visible="true"
       enabled="true"
       snapvisiblegridlinesonly="true" />
  </sodipodi:namedview>
  <metadata
     id="metadata7">
    <rdf:RDF>
      <cc:Work
         rdf:about="">
        <dc:format>image/svg+xml</dc:format>
        <dc:type
           rdf:resource="http://purl.org/dc/dcmitype/StillImage" />
        <dc:title></dc:title>
      </cc:Work>
    </rdf:RDF>
  </metadata>
  <g
     inkscape:label="Layer 1"
     inkscape:groupmode="layer"
     id="layer1"
     transform="translate(0,-1036.3622)">
    <rect
       style="fill:url(#linearGradient3624);fill-opacity:1.0;stroke:none"
       id="rect3757"
       width="16"
       height="16"
       x="0.03125"
       y="-4.2210889e-08"
       transform="translate(0,1036.3622)"
       rx="3"
       ry="3" />
    <rect
       ry="2.625"
       rx="2.625"
       y="1037.3622"
       x="1"
       height="14"
       width="14"
       id="rect2844"
       style="fill:#4e9a06;fill-opacity:1;stroke:none" />
    <g
       id="g3851"
       transform="translate(-15.782641,0.0156)">
      <path
         id="path3044"
         d="m 20.33982,1038.831 c -0.475951,0 -0.875,0.399 -0.875,0.875 0,0.4759 0.399049,0.8437 0.875,0.8437 0.475952,0 0.84375,-0.3678 0.84375,-0.8437 0,-0.476 -0.367798,-0.875 -0.84375,-0.875 z m -0.625,2.0625 c -0.184192,0 -0.696952,0.069 -0.9375,0.5 -0.0098,0.01 -0.02241,0.02 -0.03125,0.031 -0.01094,0.022 -0.02174,0.038 -0.03125,0.062 -0.01242,0.023 -0.02281,0.036 -0.03125,0.062 l -0.90625,2.7813 c -0.06754,0.2097 0.03231,0.4399 0.21875,0.5 l 0.0625,0 c 0.18644,0.06 0.401208,-0.04 0.46875,-0.25 l 0.78125,-2.4375 0.1875,0 -1.28125,4.1875 1.15625,0 0,3.125 c 0,0.2203 0.179132,0.4062 0.375,0.4062 l 0.0625,0 c 0.195868,0 0.34375,-0.1859 0.34375,-0.4062 l 0,-3.125 0.3125,0 0,3.125 c 0,0.2203 0.147882,0.4062 0.34375,0.4062 l 0.0625,0 c 0.195868,0 0.375,-0.1859 0.375,-0.4062 l 0,-3.125 1.21875,0 -1.25,-4.1875 0.1875,0 0.78125,2.4375 c 0.06754,0.2097 0.28231,0.31 0.46875,0.25 l 0.0625,0 c 0.18644,-0.06 0.286292,-0.2903 0.21875,-0.5 l -0.90625,-2.7813 c -0.211645,-0.3982 -0.600215,-0.6562 -1.03125,-0.6562 l -1.28125,0 z"
         style="fill:#ffffff;fill-opacity:1;stroke:none" />
      <path
         sodipodi:nodetypes="csssccccccccccccccccscccccccccc"
         id="path3818"
         d="m 27.68357,1038.831 c -0.475951,0 -0.84375,0.399 -0.84375,0.875 0,0.4759 0.367799,0.8437 0.84375,0.8437 0.475951,0 0.875,-0.3678 0.875,-0.8437 0,-0.476 -0.399049,-0.875 -0.875,-0.875 z m -0.78125,2.0625 c -1.499677,0 -1.34375,1.4062 -1.34375,1.4062 l 0,2.6875 c 0,0.2204 0.179132,0.4063 0.375,0.4063 l 0.0625,0 c 0.195868,0 0.34375,-0.1859 0.34375,-0.4063 l 0,-2.6875 0.25,0 0,7 c 0,0.3183 0.218439,0.5625 0.5,0.5625 l 0.03125,0 c 0.281561,0 0.5,-0.2442 0.5,-0.5625 l 0,-4.0312 0.1875,0 0,4.0312 c 0,0.3183 0.249689,0.5625 0.53125,0.5625 0.281561,0 0.53125,-0.2442 0.53125,-0.5625 l -0.03125,-7 0.1875,0 0,2.6875 c 0,0.2204 0.179132,0.4063 0.375,0.4063 l 0.0625,0 c 0.195868,0 0.34375,-0.1859 0.34375,-0.4063 l 0,-2.9062 c 0,0 0.0641,-1.1875 -1.193187,-1.1875 l -1.713063,0 z"
         style="fill:#ffffff;fill-opacity:1;stroke:none" />
      <rect
         ry="0.39774758"
         rx="0.35355309"
         y="1039.0155"
         x="23.711744"
         height="10.783379"
         width="1.0606601"
         id="rect3849"
         style="fill:#ffffff;fill-opacity:1;stroke:none" />
    </g>
  </g>
</svg>
